<?xml version="1.0" standalone="no"?><!DOCTYPE svg PUBLIC "-//W3C//DTD SVG 1.1//EN" "http://www.w3.org/Graphics/SVG/1.1/DTD/svg11.dtd"><svg t="1573801018528" class="icon" viewBox="0 0 1024 1024" version="1.1" xmlns="http://www.w3.org/2000/svg" p-id="2746" xmlns:xlink="http://www.w3.org/1999/xlink" width="16" height="16"><defs><style type="text/css"></style></defs><path d="M832.86 747.52H423.588a20.48 20.48 0 1 0 0 40.96H832.84a20.48 20.48 0 0 0 0.02-40.96z m20.48-143.36a20.48 20.48 0 0 0-20.48-20.48h-614.4a20.48 20.48 0 1 0 0 40.96h614.4a20.48 20.48 0 0 0 20.48-20.48zM832.86 256h-614.4a20.48 20.48 0 1 0 0 40.96h614.4a20.48 20.48 0 1 0 0-40.96z m0 163.84H423.588a20.48 20.48 0 1 0 0 40.96H832.84a20.48 20.48 0 0 0 0.02-40.96z" fill="" p-id="2747"></path></svg>