<?xml version="1.0" standalone="no"?><!DOCTYPE svg PUBLIC "-//W3C//DTD SVG 1.1//EN" "http://www.w3.org/Graphics/SVG/1.1/DTD/svg11.dtd"><svg t="1573801126169" class="icon" viewBox="0 0 1024 1024" version="1.1" xmlns="http://www.w3.org/2000/svg" p-id="5531" xmlns:xlink="http://www.w3.org/1999/xlink" width="16" height="16"><defs><style type="text/css"></style></defs><path d="M585.386667 547.84H293.546667v-109.226667h291.84v-1.706666c63.146667-8.533333 109.226667-63.146667 109.226666-126.293334s-46.08-117.76-109.226666-126.293333v-1.706667H293.546667v655.36h291.84c51.2 0 100.693333-27.306667 126.293333-73.386666 25.6-44.373333 25.6-100.693333 0-145.066667-27.306667-42.666667-75.093333-71.68-126.293333-71.68z m35.84 401.066667H148.48V75.093333h436.906667C684.373333 68.266667 778.24 124.586667 819.2 216.746667c40.96 92.16 18.773333 199.68-54.613333 267.946666 92.16 63.146667 133.12 179.2 98.986666 285.013334-32.426667 105.813333-131.413333 179.2-242.346666 179.2z m0 0" p-id="5532"></path></svg>