<?xml version="1.0" standalone="no"?><!DOCTYPE svg PUBLIC "-//W3C//DTD SVG 1.1//EN" "http://www.w3.org/Graphics/SVG/1.1/DTD/svg11.dtd"><svg t="1575602836482" class="icon" viewBox="0 0 1024 1024" version="1.1" xmlns="http://www.w3.org/2000/svg" p-id="1543" xmlns:xlink="http://www.w3.org/1999/xlink" width="16" height="16"><defs><style type="text/css"></style></defs><path d="M128 128v768h768V128H128z m0-128h768a128 128 0 0 1 128 128v768a128 128 0 0 1-128 128H128a128 128 0 0 1-128-128V128a128 128 0 0 1 128-128z" fill="#666666" p-id="1544"></path><path d="M384 128v112h256V128H384zM320 0h384a64 64 0 0 1 64 64v240a64 64 0 0 1-64 64H320a64 64 0 0 1-64-64V64a64 64 0 0 1 64-64z" fill="#666666" p-id="1545"></path></svg>