<?xml version="1.0" standalone="no"?><!DOCTYPE svg PUBLIC "-//W3C//DTD SVG 1.1//EN" "http://www.w3.org/Graphics/SVG/1.1/DTD/svg11.dtd"><svg t="1573801150690" class="icon" viewBox="0 0 1024 1024" version="1.1" xmlns="http://www.w3.org/2000/svg" p-id="6256" xmlns:xlink="http://www.w3.org/1999/xlink" width="16" height="16"><defs><style type="text/css"></style></defs><path d="M454 215.9l5-23.9h240.5l-5 23.9H687c-30.2 0-54.7 7.9-69.4 23.7-14.8 15.8-26.5 44.7-35.3 86.6l-78.1 371.6c-8.8 41.9-5.2 70.8 2.9 86.6 8.1 15.8 25.3 23.7 55.4 23.7h7.5l-5 23.9H324.5l5-23.9h5.3c31.1 0 56.1-7.9 71.2-23.7 15-15.8 27-44.6 35.8-86.6l78.1-371.6c8.8-41.9 9-70.8 0.6-86.6-8.4-15.8-30.1-23.7-61.2-23.7H454z" p-id="6257"></path></svg>