<?xml version="1.0" standalone="no"?><!DOCTYPE svg PUBLIC "-//W3C//DTD SVG 1.1//EN" "http://www.w3.org/Graphics/SVG/1.1/DTD/svg11.dtd"><svg t="1567994170878" class="icon" viewBox="0 0 1024 1024" version="1.1" xmlns="http://www.w3.org/2000/svg" p-id="4190" xmlns:xlink="http://www.w3.org/1999/xlink" width="48" height="48"><defs><style type="text/css"></style></defs><path d="M444.784 562.341h-303.75c-18.63 0-33.75 15.12-33.75 33.75v303.75c0 18.63 15.12 33.75 33.75 33.75h303.75c18.63 0 33.75-15.12 33.75-33.75v-303.75c0-18.63-15.12-33.75-33.75-33.75z m-20.25 317.251h-263.25v-263.25h263.25v263.25zM883.25 562.341H579.5c-18.63 0-33.75 15.12-33.75 33.75v303.75c0 18.63 15.12 33.75 33.75 33.75h303.75c18.63 0 33.75-15.12 33.75-33.75v-303.75c0-18.63-15.12-33.75-33.75-33.75zM863 879.592H599.75v-263.25H863v263.25zM444.784 123.629h-303.75c-18.63 0-33.75 15.12-33.75 33.75v303.75c0 18.63 15.12 33.75 33.75 33.75h303.75c18.63 0 33.75-15.12 33.75-33.75v-303.75c0-18.63-15.12-33.75-33.75-33.75z m-20.25 317.25h-263.25v-263.25h263.25v263.25z m306.841-317.25c-102.532 0-185.625 83.093-185.625 185.625s83.093 185.625 185.625 185.625S917 411.786 917 309.254s-83.093-185.625-185.625-185.625m0 53.999c72.563 0 131.625 59.063 131.625 131.625s-59.063 131.625-131.625 131.625c-72.563 0-131.625-59.063-131.625-131.625s59.063-131.625 131.625-131.625z" fill="#E6A23C" p-id="4191"></path></svg>