<?xml version="1.0" standalone="no"?><!DOCTYPE svg PUBLIC "-//W3C//DTD SVG 1.1//EN" "http://www.w3.org/Graphics/SVG/1.1/DTD/svg11.dtd"><svg t="1573802302218" class="icon" viewBox="0 0 1024 1024" version="1.1" xmlns="http://www.w3.org/2000/svg" p-id="2165" xmlns:xlink="http://www.w3.org/1999/xlink" width="16" height="16"><defs><style type="text/css"></style></defs><path d="M506.88 941.8752v72.4992h107.9296H146.2272C65.536 1014.3744 0 948.8384 0 868.1472V146.2272C0 65.536 65.536 0 146.2272 0h576.512c80.6912 0 146.2272 65.536 146.2272 146.2272v361.0624H796.672V145.408c0-19.456-7.7824-37.888-21.504-51.6096-13.7216-13.7216-32.3584-21.504-51.6096-21.504H145.408c-19.456 0-37.888 7.7824-51.6096 21.504-13.7216 13.7216-21.504 32.1536-21.504 51.6096v723.3536c0 19.456 7.7824 37.888 21.504 51.6096 13.7216 13.7216 32.3584 21.504 51.6096 21.504h361.472zM253.5424 289.792h434.3808c13.312-0.6144 25.8048 6.144 32.768 17.6128 6.7584 11.4688 6.7584 25.8048 0 37.2736s-19.456 18.2272-32.768 17.6128H253.5424c-19.456-0.8192-34.6112-16.7936-34.6112-36.2496-0.2048-19.456 15.1552-35.4304 34.6112-36.2496z m0 217.2928h217.2928c13.312-0.6144 25.8048 6.144 32.768 17.6128 6.7584 11.4688 6.7584 25.8048 0 37.2736s-19.456 18.2272-32.768 17.6128H253.5424c-19.456-0.8192-34.6112-16.7936-34.6112-36.2496-0.2048-19.2512 15.1552-35.2256 34.6112-36.2496z" p-id="2166"></path><path d="M1004.9536 733.3888c-49.5616-96.4608-147.2512-156.4672-255.3856-156.4672S543.744 636.928 494.1824 733.3888c-3.6864 6.9632-3.6864 15.1552 0 21.7088 49.5616 96.6656 147.2512 156.672 255.3856 156.672s205.824-60.0064 255.3856-156.4672c3.4816-6.9632 3.4816-14.9504 0-21.9136zM749.568 851.5584c-85.8112 0-151.7568-33.1776-194.56-107.3152 42.8032-74.1376 108.7488-107.3152 194.56-107.3152s151.7568 33.1776 194.56 107.3152c-42.8032 74.1376-108.7488 107.3152-194.56 107.3152z m0 0" fill="#666666" p-id="2167"></path><path d="M701.6448 744.448c0 26.4192 21.504 47.7184 47.7184 47.7184 26.4192 0 47.9232-21.504 47.9232-47.7184 0-26.4192-21.504-47.9232-47.9232-47.9232-26.2144 0-47.7184 21.504-47.7184 47.9232z m0 0" fill="#666666" p-id="2168"></path></svg>