<?xml version="1.0" standalone="no"?><!DOCTYPE svg PUBLIC "-//W3C//DTD SVG 1.1//EN" "http://www.w3.org/Graphics/SVG/1.1/DTD/svg11.dtd"><svg t="1573801212501" class="icon" viewBox="0 0 1024 1024" version="1.1" xmlns="http://www.w3.org/2000/svg" p-id="7713" xmlns:xlink="http://www.w3.org/1999/xlink" width="16" height="16"><defs><style type="text/css"></style></defs><path d="M952 473.984h-382.08c-10.048-1.984-20.48-3.968-31.616-5.952a1847.68 1847.68 0 0 1-30.784-5.824c-51.328-9.984-82.24-20.032-106.88-34.24-35.008-20.48-52.16-48.256-52.16-85.12 0-36.928 15.232-67.648 44.032-88.96 28.416-20.992 68.8-32.064 116.8-32.064 54.784 0 97.088 14.4 125.76 42.752 14.656 14.4 25.344 32.128 31.808 52.608 1.28 4.096 2.816 9.984 4.352 17.792a10.176 10.176 0 0 0 9.856 8.192h72.832a10.112 10.112 0 0 0 10.112-10.048v-1.024c-0.704-6.784-1.28-12.096-2.048-16a188.992 188.992 0 0 0-59.712-110.272c-44.352-40.512-109.696-61.824-188.672-61.824-72.32 0-137.408 18.112-183.296 50.88-25.6 18.432-45.44 41.216-58.624 67.712-13.44 27.136-20.288 58.432-20.288 92.928 0 29.44 5.76 54.464 17.28 76.48 8.32 15.68 19.648 29.44 34.112 41.984H72A8 8 0 0 0 64 481.984v60.032c0 4.416 3.584 8 8 8h433.216l5.888 1.216c30.912 6.144 49.472 10.368 66.56 15.168 23.04 6.528 40.64 13.312 55.232 21.504 35.84 20.224 53.312 49.216 53.312 88.96a110.72 110.72 0 0 1-43.584 88.832c-30.528 23.872-75.648 36.416-130.56 36.416-43.648 0-80.64-8.512-110.144-24.96a127.168 127.168 0 0 1-62.4-78.528 10.24 10.24 0 0 0-9.728-7.552H250.112a10.112 10.112 0 0 0-10.112 10.112v1.024c0.192 2.304 0.384 4.224 0.64 5.696 6.4 48.768 30.272 88.768 70.656 118.784 47.104 34.816 113.408 53.184 191.808 53.184 84.224 0 154.816-19.776 204.16-57.28 25.024-18.88 44.224-42.24 57.152-68.992a209.92 209.92 0 0 0 19.712-91.52c0-31.808-5.824-58.368-17.856-81.408a137.6 137.6 0 0 0-21.76-30.72h207.488A8 8 0 0 0 960 541.824V481.92a8 8 0 0 0-8-7.936z" p-id="7714"></path></svg>