<?xml version="1.0" standalone="no"?><!DOCTYPE svg PUBLIC "-//W3C//DTD SVG 1.1//EN" "http://www.w3.org/Graphics/SVG/1.1/DTD/svg11.dtd"><svg t="1573801282725" class="icon" viewBox="0 0 1024 1024" version="1.1" xmlns="http://www.w3.org/2000/svg" p-id="9169" xmlns:xlink="http://www.w3.org/1999/xlink" width="16" height="16"><defs><style type="text/css"></style></defs><path d="M790.396 832c6.922-21.052 37.592-42.56 72.53-64.85 33.25-21.21 70.934-45.252 100.682-77.724 34.916-38.108 51.888-80.35 51.888-129.134 0-121.124-101.404-176.292-195.62-176.292-84.982 0-152.756 44.032-188.864 100.894-9.308 14.658-5.184 34.072 9.246 43.73l60.656 40.592c14.064 9.412 32.92 6.168 43.26-7.228 16.044-20.788 37.636-36.45 63.334-36.45 38.774 0 52.532 25.802 52.532 47.896 0 72.318-238.874 114.046-238.874 320.048 0 13.308 1.122 26.028 2.83 38.662 2.152 15.928 15.668 27.856 31.74 27.856H992c17.674 0 32-14.326 32-32v-64c0-17.674-14.326-32-32-32H790.396zM544 512c17.674 0 32 14.326 32 32v64c0 17.674-14.326 32-32 32h-124.798a32 32 0 0 1-27.082-14.956l-91.402-145.23c-4.594-6.704-8.844-13.938-12.39-20.418-3.3 6.488-7.294 13.874-11.748 21.164l-89.424 144.294a31.998 31.998 0 0 1-27.2 15.144H32c-17.674 0-32-14.326-32-32v-64c0-17.674 14.326-32 32-32h52.65l113.104-165.418L92.222 192H32C14.326 192 0 177.674 0 160V96c0-17.674 14.326-32 32-32h137.612a32 32 0 0 1 27.29 15.288l79.764 130.252c4.144 7.046 8.106 14.342 11.454 20.74 3.554-6.488 7.84-13.908 12.474-21.074l80.664-130.07A31.998 31.998 0 0 1 408.452 64H544c17.674 0 32 14.326 32 32v64c0 17.674-14.326 32-32 32h-55.958l-105.38 151.342L499.948 512H544z" p-id="9170"></path></svg>