<?xml version="1.0" standalone="no"?><!DOCTYPE svg PUBLIC "-//W3C//DTD SVG 1.1//EN" "http://www.w3.org/Graphics/SVG/1.1/DTD/svg11.dtd"><svg t="1573801173966" class="icon" viewBox="0 0 1024 1024" version="1.1" xmlns="http://www.w3.org/2000/svg" p-id="6992" xmlns:xlink="http://www.w3.org/1999/xlink" width="16" height="16"><defs><style type="text/css"></style></defs><path d="M817.371429 547.693714c0 50.614857-4.534857 94.208-13.677715 130.925715a307.931429 307.931429 0 0 1-38.912 92.598857c-15.945143 24.137143-36.132571 44.982857-59.538285 61.586285-26.331429 18.139429-55.442286 31.670857-86.162286 40.082286-33.718857 9.728-73.362286 14.628571-118.930286 14.628572-55.222857 0-102.4-6.363429-141.897143-18.797715a217.453714 217.453714 0 0 1-97.718857-61.659428 256.438857 256.438857 0 0 1-55.734857-100.937143c-11.410286-38.765714-17.115429-88.137143-17.115429-147.968V174.08c0-36.205714-1.170286-60.635429-3.437714-73.362286A93.476571 93.476571 0 0 0 174.372571 70.363429 57.490286 57.490286 0 0 0 155.574857 51.273143C147.236571 45.714286 132.022857 40.155429 109.714286 34.157714V0h287.158857v34.157714c-25.453714 6.436571-43.300571 13.750857-53.321143 21.796572-10.020571 8.192-16.822857 20.333714-20.48 36.571428-3.657143 16.310857-5.485714 43.446857-5.485714 81.481143v418.962286c0 45.056 4.681143 82.870857 14.043428 113.517714 9.362286 30.573714 22.381714 54.418286 39.277715 71.314286 16.822857 16.969143 36.864 29.257143 60.196571 36.864 23.259429 7.68 52.150857 11.556571 86.820571 11.556571 31.890286 0 59.977143-5.705143 84.114286-17.042285 24.137143-11.410286 44.251429-28.672 60.489143-51.931429 16.091429-23.186286 27.209143-51.712 33.206857-85.577143 5.851429-33.938286 8.777143-79.36 8.777143-136.557714V174.08c0-40.374857-1.901714-68.022857-5.705143-82.797714A66.706286 66.706286 0 0 0 679.643429 57.051429C670.72 49.298286 652.434286 41.545143 624.566857 34.230857V0h272.822857v34.157714c-26.404571 6.948571-44.617143 14.628571-54.272 22.893715a65.462857 65.462857 0 0 0-20.260571 36.205714c-3.657143 15.798857-5.485714 42.715429-5.485714 80.749714v373.76zM109.714286 955.757714h804.571428V1024H109.714286v-68.242286z" p-id="6993"></path></svg>